<?xml version="1.0" encoding="UTF-8"?>
<!DOCTYPE svg PUBLIC "-//W3C//DTD SVG 1.1//EN" "http://www.w3.org/Graphics/SVG/1.1/DTD/svg11.dtd">
<svg xmlns="http://www.w3.org/2000/svg" version="1.1" width="870px" height="800px" style="shape-rendering:geometricPrecision; text-rendering:geometricPrecision; image-rendering:optimizeQuality; fill-rule:evenodd; clip-rule:evenodd" xmlns:xlink="http://www.w3.org/1999/xlink">
<g><path style="opacity:0.989" fill="#ffffff" d="M 565.5,208.5 C 567.648,211.403 569.148,214.736 570,218.5C 584.893,270.409 600.56,322.075 617,373.5C 629.64,412.139 655.473,437.305 694.5,449C 749.392,465.742 804.392,482.075 859.5,498C 804.221,514.647 748.888,531.313 693.5,548C 676.663,553.749 661.329,562.082 647.5,573C 632.81,587.862 622.31,605.362 616,625.5C 599.167,679.844 582.501,734.177 566,788.5C 552.201,743.637 538.868,698.637 526,653.5C 519.768,630.124 510.435,608.124 498,587.5C 481.81,567.642 461.31,554.142 436.5,547C 382.064,530.81 327.731,514.477 273.5,498C 325.398,482.358 377.398,467.025 429.5,452C 449.174,446.163 467.174,437.163 483.5,425C 498.506,410.168 509.34,392.668 516,372.5C 533.21,318.036 549.71,263.37 565.5,208.5 Z"/></g>
</svg>
